<?xml version="1.0" encoding="UTF-8"?>
<svg width="512" height="512" viewBox="0 0 512 512" fill="none" xmlns="http://www.w3.org/2000/svg">
  <!-- Background Circle -->
  <circle cx="256" cy="256" r="240" fill="#202124"/>
  
  <!-- Cards Stack -->
  <g filter="url(#shadow)">
    <!-- Bottom Card -->
    <rect x="120" y="160" width="280" height="220" rx="16" fill="#292A2D" transform="rotate(-6 120 160)"/>
    
    <!-- Middle Card -->
    <rect x="140" y="150" width="280" height="220" rx="16" fill="#1E1E1E" transform="rotate(-2 140 150)"/>
    
    <!-- Top Card -->
    <rect x="156" y="136" width="280" height="220" rx="16" fill="#3F51B5" transform="rotate(3 156 136)"/>
  </g>
  
  <!-- Card Content Lines -->
  <rect x="206" y="176" width="180" height="12" rx="6" fill="white" opacity="0.9" transform="rotate(3 206 176)"/>
  <rect x="206" y="206" width="140" height="12" rx="6" fill="white" opacity="0.7" transform="rotate(3 206 206)"/>
  <rect x="206" y="236" width="180" height="12" rx="6" fill="white" opacity="0.9" transform="rotate(3 206 236)"/>
  <rect x="206" y="266" width="120" height="12" rx="6" fill="white" opacity="0.7" transform="rotate(3 206 266)"/>
  
  <!-- Card Image Placeholder -->
  <rect x="186" y="296" width="70" height="40" rx="4" fill="#C5CAE9" transform="rotate(3 186 296)"/>
  <rect x="266" y="296" width="90" height="40" rx="4" fill="#7986CB" transform="rotate(3 266 296)"/>
  
  <!-- Filter for Shadow Effect -->
  <defs>
    <filter id="shadow" x="90" y="90" width="400" height="400" filterUnits="userSpaceOnUse" color-interpolation-filters="sRGB">
      <feFlood flood-opacity="0" result="BackgroundImageFix"/>
      <feColorMatrix in="SourceAlpha" type="matrix" values="0 0 0 0 0 0 0 0 0 0 0 0 0 0 0 0 0 0 127 0"/>
      <feOffset dy="8"/>
      <feGaussianBlur stdDeviation="12"/>
      <feColorMatrix type="matrix" values="0 0 0 0 0 0 0 0 0 0 0 0 0 0 0 0 0 0 0.25 0"/>
      <feBlend mode="normal" in2="BackgroundImageFix" result="effect1_dropShadow"/>
      <feBlend mode="normal" in="SourceGraphic" in2="effect1_dropShadow" result="shape"/>
    </filter>
  </defs>
</svg>
